<?xml version="1.0" encoding="UTF-8"?>
<svg version="1.1" xmlns="http://www.w3.org/2000/svg" width="1254" height="1254">
<path d="M0 0 C413.82 0 827.64 0 1254 0 C1254 413.82 1254 827.64 1254 1254 C840.18 1254 426.36 1254 0 1254 C0 840.18 0 426.36 0 0 Z " fill="#1A2636" transform="translate(0,0)"/>
<path d="M0 0 C1.13308594 -0.02900391 2.26617188 -0.05800781 3.43359375 -0.08789062 C14.07232945 -0.16895954 14.07232945 -0.16895954 18.75 4.3125 C21.04110964 7.80968031 20.99872102 10.82049175 20.99609566 14.94231796 C20.99840335 15.6104642 21.00071103 16.27861043 21.00308865 16.96700352 C21.00840125 19.21587441 20.99939425 21.46446149 20.99050903 23.71331787 C20.99138084 25.33781732 20.99313137 26.96231649 20.99568737 28.58681417 C21.00016973 33.05863111 20.99214502 37.53035266 20.98213124 42.00215745 C20.97351183 46.82149142 20.97641583 51.6408198 20.97793579 56.4601593 C20.9789856 64.81259185 20.97269899 73.16499321 20.96146011 81.51741791 C20.94522105 93.59368803 20.93999874 105.66994303 20.93748413 117.74622288 C20.93310452 137.33814803 20.91978821 156.93005654 20.90087891 176.52197266 C20.88252698 195.5561515 20.86836711 214.59032582 20.85986328 233.62451172 C20.85907511 235.38376927 20.85907511 235.38376927 20.85827102 237.17856738 C20.85566098 243.06222482 20.85313356 248.94588229 20.85064721 254.82953978 C20.82990643 303.65720468 20.79467367 352.48485153 20.75 401.3125 C20.09 401.3125 19.43 401.3125 18.75 401.3125 C18.729375 402.570625 18.70875 403.82875 18.6875 405.125 C17.98540138 411.57616707 14.48061222 416.17290119 10.75 421.3125 C10.33492187 421.91320312 9.91984375 422.51390625 9.4921875 423.1328125 C3.45179266 431.20075246 -7.49480298 436.51365447 -17.25 438.3125 C-21.72277194 438.59935965 -26.18661825 438.57222503 -30.66723633 438.55200195 C-32.02508143 438.55311638 -33.38292603 438.55517661 -34.74076843 438.55810547 C-37.65828452 438.56281506 -40.57572001 438.56172003 -43.49323463 438.55632973 C-48.1342755 438.54866875 -52.7751642 438.55943833 -57.41618347 438.5735321 C-70.61217763 438.61110928 -83.80810503 438.62957425 -97.00415039 438.61791992 C-104.29810626 438.61163711 -111.59181605 438.62362485 -118.88571185 438.65436524 C-122.72968545 438.66974564 -126.57317493 438.67634553 -130.41715431 438.65978432 C-153.69786464 438.56592 -176.27927732 440.39687727 -198.375 448.375 C-199.33535156 448.70048828 -200.29570313 449.02597656 -201.28515625 449.36132812 C-206.24530661 451.07935003 -210.92517616 453.03432656 -215.578125 455.46166992 C-217.56200976 456.47128417 -219.58411066 457.21383864 -221.6875 457.9375 C-234.28121333 462.88572327 -245.73247263 470.92852818 -256.25 479.3125 C-257.09046875 479.94929688 -257.9309375 480.58609375 -258.796875 481.2421875 C-274.75388216 493.66931126 -288.34015152 508.81427385 -299.72851562 525.47558594 C-300.22544922 526.18231445 -300.72238281 526.88904297 -301.234375 527.6171875 C-301.66975586 528.25382324 -302.10513672 528.89045898 -302.55371094 529.54638672 C-305.65327481 532.7735377 -308.99419941 534.14457829 -313.39038086 534.73242188 C-316.9902257 534.78529468 -320.58721332 534.81990419 -324.1875 534.8125 C-325.43724609 534.84085938 -326.68699219 534.86921875 -327.97460938 534.8984375 C-339.23669253 534.9223612 -339.23669253 534.9223612 -343.88208008 530.81933594 C-346.21476639 528.24975894 -348.2179737 525.5848361 -350.125 522.6875 C-350.99484764 521.42792394 -351.86727765 520.1701276 -352.7421875 518.9140625 C-353.16854492 518.29821289 -353.59490234 517.68236328 -354.03417969 517.04785156 C-372.58858765 490.56497369 -399.29183241 471.02845758 -428.23242188 457.29956055 C-429.67037006 456.59607258 -431.09224644 455.85932686 -432.50195312 455.10083008 C-439.11965027 451.58900508 -445.76841005 449.51693563 -453 447.625 C-455.18261197 447.03895202 -457.36491431 446.45174944 -459.546875 445.86328125 C-460.49916992 445.61231689 -461.45146484 445.36135254 -462.43261719 445.1027832 C-464.43987771 444.53974141 -466.43059572 443.91625954 -468.40698242 443.25292969 C-471.54719259 442.21419293 -474.53713905 441.70164305 -477.8125 441.25 C-478.90691406 441.09402344 -480.00132812 440.93804688 -481.12890625 440.77734375 C-491.35306206 439.54202381 -501.54575948 439.16832629 -511.83618164 439.18652344 C-513.81569842 439.18365588 -515.7952152 439.18078045 -517.77473152 439.17760801 C-519.87447695 439.17495109 -521.97421426 439.17448357 -524.07396126 439.17440033 C-528.47638207 439.17324635 -532.87872164 439.16031191 -537.28111267 439.14483643 C-538.02853621 439.14226357 -538.77595975 439.13969072 -539.54603249 439.1370399 C-541.07273427 439.13177499 -542.59943598 439.12648951 -544.12613761 439.12118387 C-554.35339296 439.08624608 -564.58054104 439.05952527 -574.80786133 439.06201172 C-581.73844469 439.06360593 -588.66874403 439.04744568 -595.59923643 439.01130509 C-599.25374834 438.99295841 -602.90778648 438.98340354 -606.56233406 438.99578094 C-610.63968336 439.00946166 -614.71593719 438.9841602 -618.79321289 438.95605469 C-619.98264496 438.96625137 -621.17207703 438.97644806 -622.39755249 438.98695374 C-634.78212049 438.83459837 -646.59530665 434.0529813 -655.37109375 425.1640625 C-663.4973966 415.67057448 -668.37982783 404.99748031 -668.37025452 392.4851532 C-668.37110894 391.81117849 -668.37196337 391.13720378 -668.37284368 390.44280559 C-668.37448646 388.19190492 -668.36899685 385.94107932 -668.36352539 383.69018555 C-668.36324323 382.07370506 -668.36340181 380.45722444 -668.3639679 378.84074402 C-668.36425476 374.45687115 -668.35837596 370.07302566 -668.35139394 365.68915915 C-668.34514192 361.10607273 -668.34455514 356.52298567 -668.34336853 351.93989563 C-668.34026067 343.26314411 -668.33205462 334.58640518 -668.32201904 325.90965921 C-668.31084099 316.03065192 -668.30534318 306.15164404 -668.30032361 296.272632 C-668.28987156 275.95258097 -668.27228266 255.63254128 -668.25 235.3125 C-664.41681381 235.22460356 -660.58389072 235.17180913 -656.75 235.125 C-655.67234375 235.09986328 -654.5946875 235.07472656 -653.484375 235.04882812 C-644.24494545 234.96432115 -637.75859302 236.59166722 -630.25 242.3125 C-627.92665846 245.79751231 -627.99792238 247.14954197 -627.99171448 251.26499939 C-627.98147247 253.13045662 -627.98147247 253.13045662 -627.97102356 255.03359985 C-627.97344302 256.41424589 -627.97602731 257.79489165 -627.97875977 259.17553711 C-627.97437329 260.62760205 -627.96907142 262.07966448 -627.96292114 263.53172302 C-627.95141418 266.65997291 -627.94596122 269.788155 -627.94503975 272.9164257 C-627.94310103 277.86195427 -627.92505901 282.80734236 -627.90428162 287.75282288 C-627.85506625 300.03701933 -627.82419833 312.32125398 -627.80297852 324.60552979 C-627.78646462 334.15084666 -627.76367585 343.69604335 -627.71995777 353.24127966 C-627.69815511 358.15844537 -627.69012599 363.07538292 -627.69235051 367.99259365 C-627.69068523 371.0509753 -627.67664583 374.10920767 -627.65913773 377.16753578 C-627.65353248 378.58651012 -627.65305829 380.00551534 -627.65807533 381.42449188 C-627.66420368 383.36067214 -627.6502552 385.29688501 -627.63526917 387.23301697 C-627.63325784 388.31683623 -627.63124651 389.4006555 -627.62917423 390.51731777 C-627.19244784 393.73676083 -626.64144356 395.11580812 -624.25 397.3125 C-621.84689809 397.9154264 -621.84689809 397.9154264 -619.08851624 397.82475281 C-618.01945541 397.83722046 -616.95039459 397.84968811 -615.84893799 397.86253357 C-614.67554871 397.85593216 -613.50215942 397.84933075 -612.29321289 397.8425293 C-611.05693649 397.85126068 -609.8206601 397.85999207 -608.54692078 397.86898804 C-605.14889734 397.88924488 -601.75169209 397.89185725 -598.3536675 397.88707328 C-594.78082474 397.88647888 -591.20813401 397.90919861 -587.63536072 397.92964172 C-580.84524648 397.96511723 -574.0552391 397.98107423 -567.26504272 397.9894169 C-557.3750686 398.00227778 -547.48519168 398.0410234 -537.59530544 398.08351612 C-536.86294975 398.08665481 -536.13059405 398.08979349 -535.37604576 398.09302729 C-533.91204462 398.09931418 -532.44804371 398.10565794 -530.98404306 398.11205989 C-526.75310254 398.12987353 -522.52221217 398.14102999 -518.29123837 398.14648956 C-477.06183607 398.20428836 -477.06183607 398.20428836 -463.125 401.1875 C-462.29742187 401.34863281 -461.46984375 401.50976562 -460.6171875 401.67578125 C-454.7092435 402.86660121 -448.99821922 404.51441451 -443.25 406.3125 C-441.63297812 406.80132944 -440.01579227 407.28961685 -438.3984375 407.77734375 C-436.80706585 408.26749662 -435.215919 408.75837995 -433.625 409.25 C-432.8309375 409.48912109 -432.036875 409.72824219 -431.21875 409.97460938 C-426.62063546 411.40304004 -422.4187747 413.11092119 -418.15332031 415.34155273 C-415.76544895 416.55968568 -413.30256955 417.57401525 -410.82421875 418.5925293 C-394.1297477 425.51615504 -379.38483366 435.14716921 -365.25 446.3125 C-363.86748047 447.37597656 -363.86748047 447.37597656 -362.45703125 448.4609375 C-348.66667429 459.20382289 -335.91106424 471.58547711 -325.5546875 485.703125 C-324.32415321 487.44757654 -324.32415321 487.44757654 -322.25 488.3125 C-321.85941406 487.45978516 -321.85941406 487.45978516 -321.4609375 486.58984375 C-304.03001455 453.80846284 -263.19244543 429.69025796 -230.25 415.3125 C-228.50009766 414.54292969 -228.50009766 414.54292969 -226.71484375 413.7578125 C-213.07850169 408.03025207 -198.67502419 403.55774889 -183.98046875 401.67578125 C-180.7131218 401.24106985 -177.54994619 400.54767592 -174.34765625 399.77734375 C-169.58682924 398.72233739 -165.04183896 398.18711471 -160.16452026 398.18119812 C-158.96724304 398.17718994 -157.76996582 398.17318176 -156.53640747 398.16905212 C-155.23645844 398.16958084 -153.9365094 398.17010956 -152.59716797 398.1706543 C-151.20377493 398.16761973 -149.81038287 398.16409746 -148.41699219 398.16012573 C-145.42468024 398.15226185 -142.43238008 398.14710145 -139.44005966 398.14383507 C-134.70854826 398.13790845 -129.97711139 398.12135465 -125.24563599 398.10249329 C-123.6240292 398.09615684 -122.00242237 398.0898312 -120.38081551 398.08351612 C-119.56902281 398.08035031 -118.75723011 398.0771845 -117.92083764 398.07392275 C-106.91094239 398.03187294 -95.90108359 397.99884453 -84.89111328 397.98657227 C-77.45565282 397.97819939 -70.02037879 397.95574375 -62.5850116 397.9172166 C-58.65238236 397.89744156 -54.72003186 397.88505637 -50.7873497 397.89005089 C-47.09191276 397.89468771 -43.39700553 397.88094593 -39.70167542 397.85303879 C-37.69865237 397.84280822 -35.69555891 397.85239338 -33.6925354 397.86253357 C-32.50089783 397.85006592 -31.30926025 397.83759827 -30.08151245 397.82475281 C-29.0458357 397.82236445 -28.01015896 397.8199761 -26.94309807 397.81751537 C-23.43989087 397.16058665 -22.43683865 396.10227374 -20.25 393.3125 C-19.65438754 390.25881492 -19.65438754 390.25881492 -19.75615788 386.79035282 C-19.75135211 386.13383481 -19.74654634 385.4773168 -19.74159494 384.8009043 C-19.73030504 382.59124241 -19.74761704 380.38272281 -19.7646637 378.17311096 C-19.76236993 376.57692107 -19.75830712 374.98073289 -19.75262302 373.38455147 C-19.74202772 368.99069556 -19.75631703 364.59721392 -19.77448976 360.20339572 C-19.78968806 355.46780445 -19.78178794 350.73224778 -19.77645874 345.99664307 C-19.7701818 337.78824788 -19.77797159 329.57996294 -19.79471016 321.37158394 C-19.81846595 309.49813732 -19.8155424 297.62480986 -19.80508172 285.75134944 C-19.78836719 266.48127863 -19.78581795 247.21123707 -19.7956543 227.94116211 C-19.79623724 226.78736775 -19.79682018 225.63357339 -19.79742079 224.44481557 C-19.80414999 211.57026434 -19.81322232 198.69571564 -19.82373047 185.82116699 C-19.82747041 181.15218105 -19.83112999 176.48319505 -19.8347168 171.81420898 C-19.83560771 170.66211961 -19.83649863 169.51003023 -19.83741654 168.32302905 C-19.85169725 149.12733695 -19.84659977 129.93170146 -19.82679409 110.73601478 C-19.81545226 98.88949719 -19.82129204 87.04322442 -19.84907293 75.19673275 C-19.86693303 67.08253099 -19.86712464 58.96845413 -19.85328431 50.8542449 C-19.84591397 46.16901784 -19.84687875 41.48416478 -19.86956978 36.79897881 C-19.89019323 32.51246233 -19.88798973 28.22659504 -19.86741316 23.94008397 C-19.86406301 22.38695617 -19.86923723 20.83378252 -19.88365562 19.28071804 C-19.90201715 17.1731772 -19.88973144 15.06796275 -19.86968327 12.96048832 C-19.8707124 11.78894107 -19.87174152 10.61739382 -19.87280184 9.41034514 C-19.06308105 5.38275652 -17.36407692 3.89766162 -14.25 1.3125 C-10.05719275 -0.78390363 -4.60674244 0.03877729 0 0 Z " fill="#FBFBFB" transform="translate(950.25,359.6875)"/>
<path d="M0 0 C1.95762016 -0.01913956 1.95762016 -0.01913956 3.95478821 -0.03866577 C5.38676811 -0.04172361 6.81875 -0.04395127 8.25073242 -0.04541016 C9.71563346 -0.05183564 11.1805332 -0.05856381 12.64543152 -0.06558228 C15.71970595 -0.07757016 18.7938679 -0.08126171 21.86816406 -0.08007812 C25.80263274 -0.07987518 29.73637712 -0.10714456 33.67067432 -0.14162254 C36.69820955 -0.16389413 39.72557079 -0.16791556 42.75317955 -0.16685867 C44.20322853 -0.16921552 45.65328224 -0.17804387 47.1032505 -0.19352341 C49.13514494 -0.21317878 51.16725151 -0.204824 53.19921875 -0.1953125 C54.35456619 -0.19816254 55.50991364 -0.20101257 56.70027161 -0.20394897 C60.50405922 0.40407615 62.0981554 1.57591909 64.79370117 4.29052734 C66.04899597 6.35638428 66.04899597 6.35638428 66.94677734 8.58642578 C67.29488464 9.43049484 67.64299194 10.2745639 68.00164795 11.14421082 C68.3597052 12.05358902 68.71776245 12.96296722 69.08666992 13.89990234 C69.47429504 14.8504097 69.86192017 15.80091705 70.2612915 16.78022766 C71.51460281 19.86177854 72.74785331 22.95093919 73.98120117 26.04052734 C74.84114584 28.16408662 75.70255873 30.28705191 76.56542969 32.40942383 C78.2462095 36.54742317 79.92047528 40.6879474 81.58862305 44.83105469 C84.0859817 51.02644555 86.64363343 57.1947483 89.23120117 63.35302734 C89.98954774 65.16790844 90.74736554 66.98301058 91.50463867 68.79833984 C91.87427734 69.68424805 92.24391602 70.57015625 92.62475586 71.48291016 C95.37902723 78.09822359 98.11339982 84.72179988 100.85107422 91.34399414 C103.82010847 98.52500595 106.7942715 105.70386009 109.77416992 112.88037109 C111.19748142 116.30870072 112.62065541 119.7370874 114.04370117 123.16552734 C114.57891388 124.45493225 114.57891388 124.45493225 115.12493896 125.77038574 C121.27382903 140.58794746 127.37535343 155.42460297 133.44116211 170.27636719 C136.73729358 178.33810166 140.08360593 186.37278272 143.54296875 194.3659668 C144.66666458 196.99348043 145.74516377 199.63229989 146.79370117 202.29052734 C148.82769884 207.44332143 151.02601694 212.52151586 153.23120117 217.60302734 C154.40451319 220.33634538 155.51310711 223.09060386 156.60620117 225.85693359 C159.68562634 233.59794106 163.05124152 241.21907623 166.37182617 248.85888672 C169.09424465 255.16651033 171.67526395 261.47220452 173.92822266 267.96362305 C175.02682567 270.91730014 176.40635966 273.67083376 177.85229492 276.46630859 C180.85148348 282.27801423 182.56462988 287.91381629 183.79370117 294.29052734 C184.45370117 294.29052734 185.11370117 294.29052734 185.79370117 294.29052734 C185.92518555 293.55318359 186.05666992 292.81583984 186.19213867 292.05615234 C186.73832263 289.54512478 187.43939582 287.4078916 188.41870117 285.04052734 C188.7719043 284.17943359 189.12510742 283.31833984 189.48901367 282.43115234 C189.91956055 281.39474609 190.35010742 280.35833984 190.79370117 279.29052734 C191.65711895 277.1961911 192.51911477 275.10127243 193.38110352 273.00634766 C193.97145837 271.5729446 194.56285971 270.13997191 195.15551758 268.70751953 C196.67310306 265.03591386 198.1692802 261.35718864 199.63745117 257.66552734 C202.54572096 250.37524027 205.57452847 243.13435 208.5847168 235.88574219 C211.43189351 229.02743749 214.26874704 222.16737963 216.9831543 215.25512695 C217.67211644 213.58522383 218.47217103 211.9618572 219.29370117 210.35302734 C221.11934415 206.62567293 222.43821516 202.79235157 223.82495117 198.88427734 C224.93987341 195.89916296 226.36920882 193.13951205 227.79370117 190.29052734 C228.82092233 187.59138557 229.79024811 184.87461218 230.75854492 182.15380859 C232.00721702 178.69993445 233.36044903 175.29641059 234.74047852 171.89331055 C235.71431029 169.48672258 236.67947148 167.07690974 237.64135742 164.66552734 C247.79577888 139.2700758 247.79577888 139.2700758 252.75073242 128.64990234 C254.27776955 125.19548127 255.51168824 121.65055991 256.77026367 118.09130859 C258.19939716 114.18028299 259.82257653 110.36018448 261.44213867 106.52490234 C262.93107942 102.96177246 264.36732758 99.37899739 265.79370117 95.79052734 C267.60694237 91.23115805 269.45287394 86.68816696 271.35620117 82.16552734 C273.06903192 78.09073573 274.67541141 73.99023897 276.23120117 69.85302734 C277.89832567 65.46640601 279.72110669 61.2180704 281.73120117 56.97802734 C284.23316978 51.65577352 286.3756089 46.25428868 288.3984375 40.73803711 C291.36677736 32.66273141 294.58146889 24.68514906 297.82592773 16.71728516 C298.50181209 15.02245911 299.15291786 13.31763407 299.78491211 11.60595703 C300.28039551 10.2857959 300.28039551 10.2857959 300.78588867 8.93896484 C301.0757666 8.14409668 301.36564453 7.34922852 301.66430664 6.53027344 C303.05539528 3.77155161 304.38640336 2.24468229 306.79370117 0.29052734 C309.72891235 -0.20394897 309.72891235 -0.20394897 313.18286133 -0.1953125 C314.4774527 -0.20146576 315.77204407 -0.20761902 317.10586548 -0.21395874 C318.5148388 -0.20016484 319.92380504 -0.18563102 321.33276367 -0.17041016 C322.77956986 -0.16802513 324.22637919 -0.16712054 325.67318726 -0.16763306 C328.70118676 -0.16450831 331.72871165 -0.14796569 334.7565918 -0.12109375 C338.6418053 -0.08705316 342.52649907 -0.07946703 346.41184425 -0.08098412 C349.39723694 -0.08044097 352.38251554 -0.06948376 355.36787033 -0.05498123 C356.80082715 -0.04860928 358.2337969 -0.04467341 359.66676712 -0.04319382 C361.66566861 -0.03886865 363.66452194 -0.01979699 365.66333008 0 C366.80154205 0.0076236 367.93975403 0.01524719 369.11245728 0.02310181 C371.79370117 0.29052734 371.79370117 0.29052734 373.79370117 2.29052734 C374.34841407 7.28294346 373.05324804 10.67125175 371.00463867 15.18896484 C370.70988647 15.84787216 370.41513428 16.50677948 370.1114502 17.18565369 C369.14060099 19.35030361 368.15460427 21.50769778 367.16870117 23.66552734 C366.4827455 25.18865897 365.79803086 26.71235005 365.11450195 28.23657227 C363.70417885 31.38019371 362.28931062 34.5217113 360.87182617 37.66210938 C358.03690788 43.95823081 355.28351021 50.28946088 352.53063965 56.62176514 C347.37232664 68.47872581 342.12579977 80.29433281 336.82397461 92.08789062 C332.49957829 101.70791719 328.20176489 111.33952729 323.91870117 120.97802734 C323.58328308 121.73280365 323.24786499 122.48757996 322.90228271 123.26522827 C317.61480335 135.16641893 312.35232802 147.07854389 307.0994873 158.99505615 C299.0839195 177.17852981 291.02000112 195.34010292 282.88748169 213.47158813 C282.05375321 215.33061358 281.22042145 217.18981637 280.38720703 219.04907227 C278.0428686 224.2793537 275.69645031 229.50859948 273.33666992 234.73193359 C270.24275036 241.60291793 267.31997162 248.44444142 264.85620117 255.57177734 C263.05429387 260.18254014 260.74925713 264.53902942 258.47729492 268.93115234 C256.76991218 272.33799493 255.26433347 275.77526597 253.79370117 279.29052734 C248.4207415 292.05334572 242.83466151 304.6919926 236.95605469 317.23120117 C233.63340759 324.34719909 230.62358771 331.52702037 227.80810547 338.85620117 C225.61045713 344.56236523 223.02869272 349.99856155 220.24682617 355.44287109 C218.97351767 357.93814501 217.75464176 360.45222217 216.54370117 362.97802734 C214.79370117 366.29052734 214.79370117 366.29052734 212.79370117 367.29052734 C211.05891857 367.40652608 209.31979951 367.46012268 207.58129883 367.48339844 C205.94917953 367.50749283 205.94917953 367.50749283 204.28408813 367.53207397 C199.31073566 367.57642245 194.33751743 367.61757645 189.36401367 367.640625 C186.73729607 367.65720453 184.11062394 367.68452027 181.48413086 367.72265625 C177.70426949 367.77727852 173.92546596 367.79927645 170.14526367 367.81396484 C168.96912506 367.83663422 167.79298645 367.85930359 166.58120728 367.88265991 C158.49000725 367.8615885 158.49000725 367.8615885 155.22973633 365.18774414 C154.75584473 364.2316626 154.28195312 363.27558105 153.79370117 362.29052734 C153.24294922 361.23148193 152.69219727 360.17243652 152.12475586 359.08129883 C151.56433333 357.86142856 151.01168925 356.63796419 150.46557617 355.41162109 C150.15943893 354.73935989 149.8533017 354.06709869 149.53788757 353.37446594 C148.5327735 351.16210526 147.53814565 348.94520193 146.54370117 346.72802734 C145.83986086 345.1727855 145.13550639 343.61777626 144.43066406 342.06298828 C138.6485101 329.28452335 132.94864219 316.46820763 127.28686523 303.63598633 C123.71267482 295.54341217 120.05861594 287.4960787 116.29541016 279.48950195 C113.48966528 273.51264046 110.7782037 267.49357117 108.08276367 261.46630859 C102.30844814 248.57019327 96.41299776 235.73094757 90.50756836 222.89453125 C85.58786112 212.20005061 80.68363591 201.49865202 75.79370117 190.79052734 C69.93642837 177.96470116 64.05518584 165.15006878 58.16162109 152.34088135 C53.00483594 141.13110836 47.88761552 129.9039921 42.79370117 118.66552734 C38.16734872 108.45923343 33.48116572 98.2863454 28.64526367 88.17724609 C26.92770914 84.58623593 25.26140436 80.97325379 23.60620117 77.35302734 C21.71334627 73.22125543 19.72986209 69.15338845 17.66870117 65.10302734 C15.4166745 60.65762052 13.51389912 56.17694483 11.72729492 51.52880859 C10.86099687 49.45186807 9.88476743 47.59394188 8.73120117 45.66552734 C7.03594823 42.71250609 5.89552132 39.90080239 4.76635742 36.70458984 C3.50254527 33.56789945 1.96286729 30.61131642 0.41870117 27.60302734 C-8.98143835 9.17138123 -8.98143835 9.17138123 -8.20629883 2.29052734 C-5.45212485 -0.46364663 -3.85746496 0.0255063 0 0 Z " fill="#FCFBFC" transform="translate(307.206298828125,359.70947265625)"/>
<path d="M0 0 C71.28 0 142.56 0 216 0 C216 0.33 216 0.66 216 1 C215.41847168 1.06469482 214.83694336 1.12938965 214.23779297 1.19604492 C174.19660938 5.75953337 136.17626201 17.48036606 103 41 C101.47246094 42.06154297 101.47246094 42.06154297 99.9140625 43.14453125 C85.19408267 53.5969539 68.31695533 66.11851952 58 81.125 C57.34 82.07375 56.68 83.0225 56 84 C55.34 84 54.68 84 54 84 C53.72470459 84.58450928 53.44940918 85.16901855 53.16577148 85.77124023 C52.04184428 87.92000075 50.81055534 89.73053115 49.34765625 91.66015625 C22.57445534 127.50468943 4.56105685 170.13068373 1 215 C0.67 215 0.34 215 0 215 C0 144.05 0 73.1 0 0 Z " fill="#000000" transform="translate(0,0)"/>
<path d="M0 0 C0.33 0 0.66 0 1 0 C1.06993164 0.6077124 1.13986328 1.2154248 1.21191406 1.84155273 C2.72794579 14.78022548 4.51872624 27.4341399 8 40 C8.52013672 41.87751953 8.52013672 41.87751953 9.05078125 43.79296875 C22.91405254 90.52791425 50.85367264 135.16515908 90.20556641 164.64990234 C91.9669839 165.97515931 93.70864429 167.32331786 95.44921875 168.67578125 C130.30132153 195.40526372 172.37457297 210.42414533 216 214 C216 214.33 216 214.66 216 215 C144.72 215 73.44 215 0 215 C0 144.05 0 73.1 0 0 Z " fill="#000000" transform="translate(0,1039)"/>
<path d="M0 0 C0.33 0 0.66 0 1 0 C1 70.95 1 141.9 1 215 C-69.95 215 -140.9 215 -214 215 C-214 214.67 -214 214.34 -214 214 C-213.2565332 213.90501221 -212.51306641 213.81002441 -211.74707031 213.7121582 C-196.22284354 211.69687915 -181.03288121 209.42287703 -166 205 C-164.77120117 204.64711914 -164.77120117 204.64711914 -163.51757812 204.28710938 C-135.72588936 196.16602222 -110.46264159 182.13469708 -88 164 C-87.16339844 163.36707031 -86.32679687 162.73414063 -85.46484375 162.08203125 C-70.58630184 150.56093465 -56.81961914 136.40713765 -46 121 C-45.52159668 120.32291992 -45.04319336 119.64583984 -44.55029297 118.94824219 C-36.92552997 108.05991439 -30.13140395 96.79158788 -24 85 C-23.52336914 84.08782715 -23.52336914 84.08782715 -23.03710938 83.15722656 C-9.59028955 57.01063246 -3.22731291 29.0096446 0 0 Z " fill="#000000" transform="translate(1253,1039)"/>
<path d="M0 0 C70.95 0 141.9 0 215 0 C215 70.95 215 141.9 215 215 C214.67 215 214.34 215 214 215 C213.94054199 214.40388916 213.88108398 213.80777832 213.81982422 213.19360352 C211.65578533 192.26061222 207.9136262 171.58946813 200 152 C199.65839844 151.09894531 199.31679687 150.19789063 198.96484375 149.26953125 C192.7213658 133.40348871 184.74440374 117.99056849 175 104 C174.37996094 103.09894531 173.75992187 102.19789062 173.12109375 101.26953125 C160.82984236 83.89755382 146.96009692 66.96437626 130 54 C128.72153675 52.98448069 127.44427634 51.96744598 126.16796875 50.94921875 C116.24900153 43.10864447 105.97991958 36.26117959 95 30 C94.25556641 29.57090332 93.51113281 29.14180664 92.74414062 28.69970703 C64.09248829 12.34944475 32.58363458 4.49912923 0 1 C0 0.67 0 0.34 0 0 Z " fill="#000000" transform="translate(1039,0)"/>
<path d="M0 0 C1.43967402 -0.00657338 1.43967402 -0.00657338 2.90843236 -0.01327956 C6.14496066 -0.02670178 9.3814617 -0.03285412 12.61801147 -0.03897095 C14.93042119 -0.04686929 17.24282966 -0.05513807 19.55523682 -0.06375122 C27.16778379 -0.09000483 34.78033635 -0.10528333 42.39291382 -0.11953735 C45.01095966 -0.12489588 47.62900547 -0.13027338 50.24705124 -0.13566971 C61.13648082 -0.15730434 72.02590809 -0.17619281 82.91535378 -0.1872921 C85.74202097 -0.1902218 88.56868812 -0.19318346 91.39535522 -0.19619751 C92.09791082 -0.19694356 92.80046642 -0.19768961 93.52431159 -0.19845827 C104.89994302 -0.21110615 116.27541795 -0.24432054 127.65097626 -0.28599934 C139.33089034 -0.32844221 151.01071608 -0.35158247 162.69070661 -0.35721266 C169.24821854 -0.36086897 175.80546534 -0.37292026 182.36290359 -0.4053154 C188.53367055 -0.43536227 194.70401149 -0.44171956 200.87483597 -0.42993164 C203.13874905 -0.42971062 205.4026817 -0.43803919 207.66652679 -0.45558548 C210.76013124 -0.47825597 213.85218827 -0.46999091 216.94580078 -0.45410156 C218.28619602 -0.47492469 218.28619602 -0.47492469 219.65366995 -0.49616849 C225.90344362 -0.41720804 229.97789084 1.2310911 234.85385132 5.15390015 C238.88441331 9.57451652 239.14868529 13.82380621 239.06478882 19.5874939 C238.63849499 24.77406879 236.83574926 28.54688239 232.97885132 31.96640015 C227.08612577 36.09130803 222.52690958 36.44466407 215.5300293 36.41459656 C214.58739554 36.4184221 213.64476178 36.42224765 212.67356336 36.42618912 C209.51306235 36.43651281 206.35274323 36.43252813 203.19223022 36.42855835 C200.9270155 36.43290518 198.66180225 36.43808823 196.39659119 36.44404602 C190.24163834 36.45745069 184.08674685 36.45801302 177.93178225 36.45548272 C172.79501264 36.45441395 167.65825549 36.45929399 162.52148855 36.46408814 C149.71032116 36.47582342 136.8991979 36.47495536 124.08802991 36.46853133 C112.96738299 36.46336312 101.84682369 36.47461517 90.7261941 36.49362955 C79.30269398 36.51301177 67.87925145 36.52097187 56.45573175 36.5175063 C50.04425459 36.51569219 43.63285768 36.51834242 37.22139359 36.53222084 C31.19182686 36.54478385 25.16243562 36.5428694 19.13287163 36.52980995 C16.92015334 36.52744126 14.70742275 36.53018928 12.49471855 36.53843307 C9.47348835 36.5488773 6.45284951 36.54081818 3.43164062 36.52812195 C2.11912777 36.53918338 2.11912777 36.53918338 0.78009951 36.55046827 C-5.94168725 36.49106941 -10.67554587 35.28760258 -15.89614868 30.77890015 C-20.04807485 25.93498628 -21.68866031 22.81928063 -21.42349243 16.4234314 C-20.62529857 9.89173229 -17.69132102 6.27840435 -12.76724243 2.31796265 C-8.77901295 -0.54587443 -4.72910311 0.00259536 0 0 Z " fill="#FAFAFB" transform="translate(642.1461486816406,640.8460998535156)"/>
<path d="M0 0 C0.77773167 -0.00367669 1.55546335 -0.00735338 2.35676265 -0.01114148 C4.96520441 -0.02216257 7.57360632 -0.02601947 10.18206787 -0.02983093 C12.05142849 -0.03609672 13.92078786 -0.04274363 15.79014587 -0.04974365 C21.93086888 -0.07077095 28.07159211 -0.08114411 34.21234131 -0.09111023 C36.32705447 -0.09515814 38.44176751 -0.09927508 40.55648041 -0.10346031 C50.49089354 -0.12250826 60.42529926 -0.13674069 70.35972714 -0.14507228 C81.82487691 -0.15484662 93.28983371 -0.18117302 104.75491548 -0.22157317 C113.61874373 -0.25173481 122.48251667 -0.26654117 131.34639525 -0.26985329 C136.63958916 -0.27220352 141.93257681 -0.28116075 147.22571564 -0.30631447 C152.20636186 -0.32960123 157.18666612 -0.33382592 162.16735268 -0.32355309 C163.9926473 -0.32305778 165.8179588 -0.32937665 167.64320183 -0.34310913 C170.1410416 -0.36084659 172.63765648 -0.35371346 175.13549805 -0.34057617 C175.85263796 -0.35154542 176.56977787 -0.36251466 177.3086493 -0.37381631 C183.66001247 -0.29352586 188.29092117 2.07763553 193.41546631 5.57685852 C197.21868448 9.48572164 197.77536442 12.78923962 197.94671631 18.20967102 C197.69992203 23.621927 197.22568206 27.13769268 193.32171631 31.14717102 C188.1780879 35.78898202 184.28515508 36.2966073 177.56713867 36.30107117 C176.7691381 36.30545342 175.97113752 36.30983567 175.14895511 36.31435072 C172.46597991 36.32774117 169.78303756 36.33391812 167.10003662 36.34004211 C165.1799403 36.34794284 163.25984547 36.35621178 161.3397522 36.36482239 C155.026463 36.39104435 148.71316716 36.40634952 142.39984131 36.42060852 C140.22722113 36.425968 138.05460099 36.43134551 135.8819809 36.43674088 C126.84543559 36.45836924 117.80889207 36.47710652 108.77232742 36.48836327 C95.81768495 36.50460645 82.86334223 36.53779387 69.90881276 36.59476411 C60.80213643 36.63344874 51.69554033 36.65299418 42.58878398 36.65828383 C37.14856373 36.66193909 31.70866317 36.67397935 26.2685318 36.70638657 C21.14996409 36.73644124 16.03190996 36.74278819 10.91327286 36.73100281 C9.03594932 36.73078186 7.15860212 36.73910434 5.28136063 36.75665665 C2.71503224 36.77934343 0.15056697 36.77105658 -2.41577148 36.75517273 C-3.52605591 36.77599586 -3.52605591 36.77599586 -4.65877032 36.79723966 C-11.65088434 36.69085404 -15.45292009 33.42959522 -20.11578369 28.64717102 C-22.54090267 23.2149045 -22.40957947 17.99753725 -21.67828369 12.14717102 C-19.43010242 7.30493443 -15.1525994 2.42393095 -9.97067642 0.51965046 C-6.65133939 -0.01969203 -3.35324376 -0.00085146 0 0 Z " fill="#FAFAFB" transform="translate(683.6782836914063,539.8528289794922)"/>
<path d="M0 0 C1.26729446 -0.00708481 2.53458893 -0.01416962 3.84028625 -0.02146912 C5.23724401 -0.01917548 6.63420143 -0.01666581 8.03115845 -0.01396179 C9.50820676 -0.01831092 10.98525282 -0.02349474 12.46229553 -0.02944946 C16.4685655 -0.04282999 20.47474108 -0.04341913 24.48102903 -0.04088616 C27.82836497 -0.03981568 31.17568186 -0.04470187 34.52301371 -0.04949158 C42.42206475 -0.06058377 50.32106823 -0.06102598 58.22012329 -0.05497742 C66.36183343 -0.04893876 74.50337071 -0.0612465 82.64505136 -0.08254749 C89.64139321 -0.10017711 96.6376801 -0.10616265 103.63404334 -0.10290974 C107.80988301 -0.10109871 111.9855994 -0.10371497 116.16141891 -0.11762428 C120.0898311 -0.13021999 124.01797437 -0.12824218 127.94638252 -0.11521339 C129.38507364 -0.11285174 130.82378379 -0.11556757 132.26245308 -0.12383652 C147.81242025 -0.20674101 147.81242025 -0.20674101 153.89297485 5.19819641 C154.45242798 5.87882141 155.0118811 6.55944641 155.58828735 7.26069641 C156.16320923 7.94132141 156.7381311 8.62194641 157.33047485 9.32319641 C160.35884811 13.56634085 160.29831195 18.25455733 159.71328735 23.26069641 C157.83692638 28.85586919 153.58566565 33.07655446 148.71328735 36.26069641 C145.3147613 37.37012629 142.11249623 37.39403408 138.55355835 37.40786743 C137.28908371 37.41502274 136.02460907 37.42217804 134.72181702 37.42955017 C133.32281519 37.43239024 131.92381309 37.43510199 130.52481079 37.43769836 C129.0495335 37.44396579 127.57425777 37.45061284 126.09898376 37.45761108 C121.25688774 37.47861998 116.41479152 37.48901022 111.57266235 37.49897766 C109.90370925 37.50302634 108.2347563 37.5071433 106.56580353 37.51132774 C98.72442007 37.53037212 90.88304599 37.54460496 83.04164386 37.55293971 C73.99889248 37.56271092 64.95638596 37.58903047 55.91372085 37.62944061 C48.91824188 37.65962643 41.92283302 37.67441091 34.9272902 37.67772073 C30.75189989 37.68006831 26.57677139 37.68899065 22.40145111 37.7141819 C18.47137118 37.73751115 14.54172456 37.74167659 10.61159325 37.73142052 C9.17330926 37.73092623 7.73500359 37.73721513 6.29678535 37.75097656 C-1.64101469 37.8226479 -7.56129133 37.69830631 -14.28671265 33.26069641 C-19.74767283 27.3686078 -20.73469591 23.32719237 -20.6031189 15.43257141 C-20.06560119 10.0441223 -17.68832692 7.5544942 -13.84921265 4.01069641 C-9.24457988 0.86606916 -5.55453787 0.01036778 0 0 Z " fill="#F8F8F9" transform="translate(722.2867126464844,438.7393035888672)"/>
<path d="M0 0 C0.66 0.33 1.32 0.66 2 1 C-4.40330768 8.28870331 -11.0848117 15.20114197 -18 22 C-18.66 21.34 -19.32 20.68 -20 20 C-13.4 13.4 -6.8 6.8 0 0 Z " fill="#222F3F" transform="translate(686,844)"/>
<path d="M0 0 C0.33 0.99 0.66 1.98 1 3 C-4.45769811 3.11138159 -9.61509359 2.91657981 -15 2 C-15 1.67 -15 1.34 -15 1 C-9.92928099 0.28832014 -5.11791642 -0.10662326 0 0 Z " fill="#2B3848" transform="translate(465,799)"/>
<path d="M0 0 C0.99 0.33 1.98 0.66 3 1 C3.99 0.67 4.98 0.34 6 0 C5.5359375 1.1446875 5.5359375 1.1446875 5.0625 2.3125 C4.32106407 4.18789677 3.63771783 6.08684652 3 8 C2.34 8 1.68 8 1 8 C0.67 5.36 0.34 2.72 0 0 Z " fill="#313A47" transform="translate(490,646)"/>
<path d="M0 0 C0.66 0.33 1.32 0.66 2 1 C1.57576756 2.46224799 1.13509755 3.91973412 0.6875 5.375 C0.44386719 6.18710937 0.20023437 6.99921875 -0.05078125 7.8359375 C-1 10 -1 10 -4 12 C-3.52309796 10.37433394 -3.04340334 8.74948689 -2.5625 7.125 C-2.29566406 6.22007812 -2.02882813 5.31515625 -1.75390625 4.3828125 C-1 2 -1 2 0 0 Z " fill="#CACCD0" transform="translate(511,607)"/>
<path d="M0 0 C0.66 0.99 1.32 1.98 2 3 C0.68 4.32 -0.64 5.64 -2 7 C-2.99 6.67 -3.98 6.34 -5 6 C-3.35 4.02 -1.7 2.04 0 0 Z " fill="#3C4554" transform="translate(963,777)"/>
<path d="M0 0 C0.33 0 0.66 0 1 0 C1.33 4.29 1.66 8.58 2 13 C1.01 13.33 0.02 13.66 -1 14 C-0.67 9.38 -0.34 4.76 0 0 Z " fill="#555E6A" transform="translate(881,553)"/>
<path d="M0 0 C0.66 0.99 1.32 1.98 2 3 C1.3125 5.625 1.3125 5.625 0 8 C-0.99 8.33 -1.98 8.66 -3 9 C-2.01 6.03 -1.02 3.06 0 0 Z " fill="#465160" transform="translate(544,675)"/>
</svg>
